<svg width="25" height="27" viewBox="0 0 25 27" fill="none" xmlns="http://www.w3.org/2000/svg">
<path d="M24.1016 6.32834H14.082V0.527344C14.082 0.236145 13.8459 0 13.5547 0H0.898438C0.607186 0 0.371094 0.236145 0.371094 0.527344V26.4726C0.371094 26.7638 0.607186 26.9999 0.898438 26.9999H13.5547H24.1016C24.3928 26.9999 24.6289 26.7638 24.6289 26.4726V6.85568C24.6289 6.56443 24.3928 6.32834 24.1016 6.32834ZM14.082 7.38302H23.5742V20.6718H14.082V7.38302ZM5.64453 25.9453V21.7265H8.80859V25.9453H5.64453ZM9.33594 20.6718H5.11719C4.82594 20.6718 4.58984 20.908 4.58984 21.1992V25.9453H1.42578V1.05469H13.0273V25.9453H9.86328V21.1992C9.86328 20.908 9.62714 20.6718 9.33594 20.6718ZM14.082 25.9453V21.7265H23.5742V25.9453H14.082Z" fill="#BFC3F3"/>
<path d="M6.69922 4.21875H7.75375C8.045 4.21875 8.28109 3.98266 8.28109 3.69141V2.63672C8.28109 2.34547 8.045 2.10938 7.75375 2.10938H6.69922C6.40797 2.10938 6.17188 2.34547 6.17188 2.63672V3.69141C6.17188 3.98266 6.40797 4.21875 6.69922 4.21875Z" fill="#BFC3F3"/>
<path d="M6.69922 7.91016H7.75375C8.045 7.91016 8.28109 7.67407 8.28109 7.38281V6.32813C8.28109 6.03687 8.045 5.80078 7.75375 5.80078H6.69922C6.40797 5.80078 6.17188 6.03687 6.17188 6.32813V7.38281C6.17188 7.67407 6.40797 7.91016 6.69922 7.91016Z" fill="#BFC3F3"/>
<path d="M6.69922 11.6016H7.75375C8.045 11.6016 8.28109 11.3655 8.28109 11.0742V10.0195C8.28109 9.72828 8.045 9.49219 7.75375 9.49219H6.69922C6.40797 9.49219 6.17188 9.72828 6.17188 10.0195V11.0742C6.17188 11.3655 6.40797 11.6016 6.69922 11.6016Z" fill="#BFC3F3"/>
<path d="M6.69922 15.293H7.75375C8.045 15.293 8.28109 15.0569 8.28109 14.7656V13.7109C8.28109 13.4197 8.045 13.1836 7.75375 13.1836H6.69922C6.40797 13.1836 6.17188 13.4197 6.17188 13.7109V14.7656C6.17188 15.0569 6.40797 15.293 6.69922 15.293Z" fill="#BFC3F3"/>
<path d="M6.69922 18.9844H7.75375C8.045 18.9844 8.28109 18.7483 8.28109 18.457V17.4023C8.28109 17.1111 8.045 16.875 7.75375 16.875H6.69922C6.40797 16.875 6.17188 17.1111 6.17188 17.4023V18.457C6.17188 18.7483 6.40797 18.9844 6.69922 18.9844Z" fill="#BFC3F3"/>
<path d="M3.00781 4.21875H4.06234C4.35359 4.21875 4.58969 3.98266 4.58969 3.69141V2.63672C4.58969 2.34547 4.35359 2.10938 4.06234 2.10938H3.00781C2.71656 2.10938 2.48047 2.34547 2.48047 2.63672V3.69141C2.48047 3.98266 2.71656 4.21875 3.00781 4.21875Z" fill="#BFC3F3"/>
<path d="M3.00781 7.91016H4.06234C4.35359 7.91016 4.58969 7.67407 4.58969 7.38281V6.32813C4.58969 6.03687 4.35359 5.80078 4.06234 5.80078H3.00781C2.71656 5.80078 2.48047 6.03687 2.48047 6.32813V7.38281C2.48047 7.67407 2.71656 7.91016 3.00781 7.91016Z" fill="#BFC3F3"/>
<path d="M3.00781 11.6016H4.06234C4.35359 11.6016 4.58969 11.3655 4.58969 11.0742V10.0195C4.58969 9.72828 4.35359 9.49219 4.06234 9.49219H3.00781C2.71656 9.49219 2.48047 9.72828 2.48047 10.0195V11.0742C2.48047 11.3655 2.71656 11.6016 3.00781 11.6016Z" fill="#BFC3F3"/>
<path d="M3.00781 15.293H4.06234C4.35359 15.293 4.58969 15.0569 4.58969 14.7656V13.7109C4.58969 13.4197 4.35359 13.1836 4.06234 13.1836H3.00781C2.71656 13.1836 2.48047 13.4197 2.48047 13.7109V14.7656C2.48047 15.0569 2.71656 15.293 3.00781 15.293Z" fill="#BFC3F3"/>
<path d="M3.00781 18.9844H4.06234C4.35359 18.9844 4.58969 18.7483 4.58969 18.457V17.4023C4.58969 17.1111 4.35359 16.875 4.06234 16.875H3.00781C2.71656 16.875 2.48047 17.1111 2.48047 17.4023V18.457C2.48047 18.7483 2.71656 18.9844 3.00781 18.9844Z" fill="#BFC3F3"/>
<path d="M11.4452 2.10938H10.3906C10.0994 2.10938 9.86328 2.34547 9.86328 2.63672V3.69141C9.86328 3.98266 10.0994 4.21875 10.3906 4.21875H11.4452C11.7364 4.21875 11.9725 3.98266 11.9725 3.69141V2.63672C11.9725 2.34547 11.7364 2.10938 11.4452 2.10938Z" fill="#BFC3F3"/>
<path d="M11.4452 5.80078H10.3906C10.0994 5.80078 9.86328 6.03687 9.86328 6.32812V7.38281C9.86328 7.67406 10.0994 7.91016 10.3906 7.91016H11.4452C11.7364 7.91016 11.9725 7.67406 11.9725 7.38281V6.32812C11.9725 6.03693 11.7364 5.80078 11.4452 5.80078Z" fill="#BFC3F3"/>
<path d="M11.4452 9.49219H10.3906C10.0994 9.49219 9.86328 9.72828 9.86328 10.0195V11.0742C9.86328 11.3655 10.0994 11.6016 10.3906 11.6016H11.4452C11.7364 11.6016 11.9725 11.3655 11.9725 11.0742V10.0195C11.9725 9.72833 11.7364 9.49219 11.4452 9.49219Z" fill="#BFC3F3"/>
<path d="M11.4452 13.1836H10.3906C10.0994 13.1836 9.86328 13.4197 9.86328 13.7109V14.7656C9.86328 15.0569 10.0994 15.293 10.3906 15.293H11.4452C11.7364 15.293 11.9725 15.0569 11.9725 14.7656V13.7109C11.9725 13.4197 11.7364 13.1836 11.4452 13.1836Z" fill="#BFC3F3"/>
<path d="M11.4452 16.875H10.3906C10.0994 16.875 9.86328 17.1111 9.86328 17.4023V18.457C9.86328 18.7483 10.0994 18.9844 10.3906 18.9844H11.4452C11.7364 18.9844 11.9725 18.7483 11.9725 18.457V17.4023C11.9725 17.1111 11.7364 16.875 11.4452 16.875Z" fill="#BFC3F3"/>
<path d="M21.201 9.49219H20.1465C19.8552 9.49219 19.6191 9.72828 19.6191 10.0195V11.0742C19.6191 11.3655 19.8552 11.6016 20.1465 11.6016H21.201C21.4923 11.6016 21.7284 11.3655 21.7284 11.0742V10.0195C21.7284 9.72833 21.4922 9.49219 21.201 9.49219Z" fill="#BFC3F3"/>
<path d="M21.201 13.1836H20.1465C19.8552 13.1836 19.6191 13.4197 19.6191 13.7109V14.7656C19.6191 15.0569 19.8552 15.293 20.1465 15.293H21.201C21.4923 15.293 21.7284 15.0569 21.7284 14.7656V13.7109C21.7284 13.4197 21.4922 13.1836 21.201 13.1836Z" fill="#BFC3F3"/>
<path d="M21.201 16.875H20.1465C19.8552 16.875 19.6191 17.1111 19.6191 17.4023V18.457C19.6191 18.7483 19.8552 18.9844 20.1465 18.9844H21.201C21.4923 18.9844 21.7284 18.7483 21.7284 18.457V17.4023C21.7284 17.1111 21.4922 16.875 21.201 16.875Z" fill="#BFC3F3"/>
<path d="M17.5096 9.49219H16.4551C16.1638 9.49219 15.9277 9.72828 15.9277 10.0195V11.0742C15.9277 11.3655 16.1638 11.6016 16.4551 11.6016H17.5096C17.8009 11.6016 18.037 11.3655 18.037 11.0742V10.0195C18.037 9.72833 17.8008 9.49219 17.5096 9.49219Z" fill="#BFC3F3"/>
<path d="M17.5096 13.1836H16.4551C16.1638 13.1836 15.9277 13.4197 15.9277 13.7109V14.7656C15.9277 15.0569 16.1638 15.293 16.4551 15.293H17.5096C17.8009 15.293 18.037 15.0569 18.037 14.7656V13.7109C18.037 13.4197 17.8008 13.1836 17.5096 13.1836Z" fill="#BFC3F3"/>
<path d="M17.5096 16.875H16.4551C16.1638 16.875 15.9277 17.1111 15.9277 17.4023V18.457C15.9277 18.7483 16.1638 18.9844 16.4551 18.9844H17.5096C17.8009 18.9844 18.037 18.7483 18.037 18.457V17.4023C18.037 17.1111 17.8008 16.875 17.5096 16.875Z" fill="#BFC3F3"/>
</svg>
