<svg width="31" height="27" viewBox="0 0 31 27" fill="none" xmlns="http://www.w3.org/2000/svg">
<path d="M24.6149 11.9217C26.4336 10.7636 27.6385 8.75949 27.6385 6.48502C27.6385 2.90914 24.6606 0 21.0001 0C18.5499 0 16.4055 1.30369 15.2554 3.23819C14.1052 1.30369 11.9611 0 9.51086 0C5.85042 0 2.87225 2.90914 2.87225 6.48502C2.87225 8.75949 4.07712 10.7636 5.89581 11.9217C2.43929 13.3146 0 16.6414 0 20.515V23.7884C0 25.5594 1.47488 27 3.28753 27H27.2232C29.0361 27 30.5107 25.5594 30.5107 23.7886V20.515C30.5107 16.6414 28.0715 13.3146 24.6149 11.9217ZM21.0001 1.74644C23.6747 1.74644 25.8507 3.87218 25.8507 6.48502C25.8507 9.09809 23.6747 11.2238 21.0001 11.2238C18.3253 11.2238 16.1492 9.09809 16.1492 6.48502C16.1492 3.87218 18.3253 1.74644 21.0001 1.74644ZM15.2521 13.1129C14.6031 12.6312 13.8894 12.2294 13.1259 11.9217C13.9991 11.3657 14.7307 10.6146 15.2554 9.73231C15.7798 10.6142 16.511 11.3648 17.3834 11.9208C16.6271 12.2246 15.9106 12.6244 15.2521 13.1129ZM4.65999 6.48502C4.65999 3.87218 6.83601 1.74644 9.51086 1.74644C12.1855 1.74644 14.3615 3.87218 14.3615 6.48502C14.3615 9.09809 12.1855 11.2238 9.51086 11.2238C6.83601 11.2238 4.65999 9.09809 4.65999 6.48502ZM14.7765 25.2536H3.28753C2.46047 25.2536 1.78774 24.5964 1.78774 23.7886V20.515C1.78774 16.3547 5.25241 12.9703 9.51086 12.9703C13.7693 12.9703 17.234 16.3549 17.234 20.515V23.7886C17.234 24.5964 16.561 25.2536 15.7342 25.2536H14.7765ZM28.723 23.7886C28.723 24.5964 28.0503 25.2536 27.2232 25.2536H18.6581C18.89 24.814 19.0217 24.3162 19.0217 23.7886V20.515C19.0217 18.1368 18.1018 15.9647 16.5922 14.3197C17.8795 13.4446 19.4137 12.9703 21.0001 12.9703C25.2586 12.9703 28.723 16.3547 28.723 20.515V23.7886Z" fill="#BFC3F3"/>
</svg>
