<svg width="27" height="27" viewBox="0 0 27 27" fill="none" xmlns="http://www.w3.org/2000/svg">
<path d="M26.8708 8.87085C26.8706 8.87073 26.8705 8.87061 26.8704 8.87049L25.8792 7.80524C25.6312 7.53702 25.2936 7.38671 24.9418 7.38778H23.7989C23.6818 7.3879 23.5694 7.33797 23.4865 7.2491L23.1205 6.85539C22.9479 6.67005 22.9477 6.3693 23.1202 6.18373C23.1203 6.18361 23.1204 6.18349 23.1205 6.18337L23.433 5.8476C23.6055 5.66214 23.6055 5.36152 23.433 5.17606L20.3177 1.8307C20.2972 1.80873 20.2747 1.78902 20.2506 1.77181C18.9497 0.836742 17.4327 0.308448 15.8687 0.245877L9.69918 0.000341791C9.45528 -0.00951287 9.25011 0.194942 9.24094 0.45704C9.23415 0.651047 9.33789 0.829974 9.50296 0.908871L15.3366 3.70712C15.8946 4.00798 16.4104 4.39166 16.8688 4.84694L15.3101 6.52199C15.1376 6.70745 15.1376 7.00808 15.3101 7.19353L0.620292 22.9757C-0.22752 23.919 -0.203213 25.4223 0.674596 26.3334C1.53092 27.2222 2.88851 27.2222 3.74483 26.3334L18.4328 10.5498C18.6054 10.7352 18.8851 10.7352 19.0577 10.5498L19.9955 9.54251C20.1703 9.36293 20.4456 9.36293 20.6204 9.54251L20.9863 9.93574C21.0695 10.0246 21.1162 10.1455 21.1158 10.2715V11.4997C21.1147 11.8778 21.2547 12.2405 21.5043 12.507L22.4951 13.5722C22.6676 13.7578 22.9475 13.758 23.1202 13.5726C23.1203 13.5725 23.1204 13.5724 23.1205 13.5722L26.8704 9.54251C27.0431 9.35717 27.0432 9.05642 26.8708 8.87085ZM3.12036 25.6619C2.60257 26.2183 1.76299 26.2183 1.2452 25.6619C0.727408 25.1055 0.727408 24.2032 1.2452 23.6468L15.9327 7.86318L17.8079 9.87828L3.12036 25.6619ZM22.8076 12.5649L22.1297 11.8354C22.0471 11.7462 22.0005 11.6255 22.0002 11.4997V10.2715C22.001 9.89348 21.8612 9.53075 21.6117 9.2642L21.2458 8.87049C20.728 8.31429 19.8888 8.31429 19.371 8.87049L18.7457 9.54203L16.2456 6.85539L17.8083 5.17606C17.9809 4.9906 17.9809 4.68997 17.8083 4.50452L17.6833 4.37011C17.107 3.75295 16.4419 3.2398 15.7135 2.85036L11.9442 1.04042L15.8359 1.19525C17.2223 1.2501 18.5678 1.71393 19.725 2.53596L22.4947 5.5123C21.9781 6.06927 21.9781 6.97044 22.4947 7.52741L22.8611 7.92112C23.1092 8.18897 23.4467 8.33917 23.7984 8.3381H24.9413C25.0584 8.33852 25.1707 8.3885 25.2537 8.47725L25.9326 9.20674L22.8076 12.5649Z" fill="#BFC3F3"/>
</svg>
