<svg width="56" height="38" viewBox="0 0 56 38" fill="none" xmlns="http://www.w3.org/2000/svg">
<path d="M41.8708 8.87085C41.8706 8.87073 41.8705 8.87061 41.8704 8.87049L40.8792 7.80524C40.6312 7.53702 40.2936 7.38671 39.9418 7.38778H38.7989C38.6818 7.3879 38.5694 7.33797 38.4865 7.2491L38.1205 6.85539C37.9479 6.67005 37.9477 6.3693 38.1202 6.18373C38.1203 6.18361 38.1204 6.18349 38.1205 6.18337L38.433 5.8476C38.6055 5.66214 38.6055 5.36152 38.433 5.17606L35.3177 1.8307C35.2972 1.80873 35.2747 1.78902 35.2506 1.77181C33.9497 0.836742 32.4327 0.308448 30.8687 0.245877L24.6992 0.000341791C24.4553 -0.00951287 24.2501 0.194942 24.2409 0.45704C24.2341 0.651047 24.3379 0.829974 24.503 0.908871L30.3366 3.70712C30.8946 4.00798 31.4104 4.39166 31.8688 4.84694L30.3101 6.52199C30.1376 6.70745 30.1376 7.00808 30.3101 7.19353L15.6203 22.9757C14.7725 23.919 14.7968 25.4223 15.6746 26.3334C16.5309 27.2222 17.8885 27.2222 18.7448 26.3334L33.4328 10.5498C33.6054 10.7352 33.8851 10.7352 34.0577 10.5498L34.9955 9.54251C35.1703 9.36293 35.4456 9.36293 35.6204 9.54251L35.9863 9.93574C36.0695 10.0246 36.1162 10.1455 36.1158 10.2715V11.4997C36.1147 11.8778 36.2547 12.2405 36.5043 12.507L37.4951 13.5722C37.6676 13.7578 37.9475 13.758 38.1202 13.5726C38.1203 13.5725 38.1204 13.5724 38.1205 13.5722L41.8704 9.54251C42.0431 9.35717 42.0432 9.05642 41.8708 8.87085ZM18.1204 25.6619C17.6026 26.2183 16.763 26.2183 16.2452 25.6619C15.7274 25.1055 15.7274 24.2032 16.2452 23.6468L30.9327 7.86318L32.8079 9.87828L18.1204 25.6619ZM37.8076 12.5649L37.1297 11.8354C37.0471 11.7462 37.0005 11.6255 37.0002 11.4997V10.2715C37.001 9.89348 36.8612 9.53075 36.6117 9.2642L36.2458 8.87049C35.728 8.31429 34.8888 8.31429 34.371 8.87049L33.7457 9.54203L31.2456 6.85539L32.8083 5.17606C32.9809 4.9906 32.9809 4.68997 32.8083 4.50452L32.6833 4.37011C32.107 3.75295 31.4419 3.2398 30.7135 2.85036L26.9442 1.04042L30.8359 1.19525C32.2223 1.2501 33.5678 1.71393 34.725 2.53596L37.4947 5.5123C36.9781 6.06927 36.9781 6.97044 37.4947 7.52741L37.8611 7.92112C38.1092 8.18897 38.4467 8.33917 38.7984 8.3381H39.9413C40.0584 8.33852 40.1707 8.3885 40.2537 8.47725L40.9326 9.20674L37.8076 12.5649Z" fill="#2B3AD7" fill-opacity="0.32"/>
</svg>
