<svg width="56" height="38" viewBox="0 0 56 38" fill="none" xmlns="http://www.w3.org/2000/svg">
<path d="M29.3472 27H27.6527C26.2822 27 25.1671 25.885 25.1671 24.5145V23.9412C24.5845 23.755 24.0184 23.5201 23.4745 23.2386L23.0683 23.6449C22.0843 24.6301 20.5081 24.6012 19.5527 23.6445L18.3551 22.4469C17.398 21.4909 17.3705 19.9152 18.3554 18.9314L18.7613 18.5254C18.4799 17.9816 18.245 17.4156 18.0588 16.8328H17.4855C16.1151 16.8328 15 15.7178 15 14.3473V12.6527C15 11.2822 16.1151 10.1672 17.4856 10.1672H18.0588C18.245 9.58447 18.4799 9.01842 18.7614 8.47457L18.3551 8.06836C17.3708 7.08507 17.3979 5.50927 18.3554 4.55282L19.5532 3.35512C20.5108 2.3962 22.0866 2.37226 23.0687 3.35544L23.4746 3.76133C24.0184 3.47994 24.5845 3.24496 25.1672 3.05875V2.48553C25.1672 1.11502 26.2822 0 27.6528 0H29.3473C30.7178 0 31.8328 1.11502 31.8328 2.48553V3.0588C32.4155 3.24496 32.9816 3.47994 33.5254 3.76138L33.9317 3.35512C34.9157 2.36994 36.4918 2.39883 37.4472 3.35549L38.6449 4.55309C39.602 5.50911 39.6295 7.08476 38.6446 8.06862L38.2386 8.47457C38.5201 9.01842 38.755 9.58442 38.9412 10.1672H39.5144C40.8849 10.1672 42 11.2822 42 12.6527V14.3473C42 15.7178 40.8849 16.8328 39.5144 16.8328H38.9412C38.755 17.4155 38.5201 17.9816 38.2386 18.5254L38.6449 18.9317C39.6292 19.915 39.6021 21.4908 38.6446 22.4472L37.4468 23.6449C36.4892 24.6039 34.9134 24.6278 33.9313 23.6446L33.5254 23.2387C32.9816 23.5201 32.4155 23.7551 31.8328 23.9413V24.5146C31.8328 25.885 30.7178 27 29.3472 27V27ZM23.739 21.5773C24.4945 22.0241 25.3077 22.3617 26.1559 22.5806C26.5052 22.6707 26.7492 22.9858 26.7492 23.3465V24.5145C26.7492 25.0127 27.1546 25.418 27.6528 25.418H29.3473C29.8455 25.418 30.2508 25.0127 30.2508 24.5145V23.3465C30.2508 22.9858 30.4949 22.6707 30.8442 22.5806C31.6924 22.3617 32.5055 22.0241 33.2611 21.5773C33.5719 21.3935 33.9677 21.4435 34.2231 21.6989L35.0504 22.5262C35.4071 22.8833 35.9799 22.8751 36.3278 22.5266L37.5263 21.3282C37.8734 20.9815 37.885 20.4086 37.5266 20.0507L36.699 19.223C36.4436 18.9677 36.3937 18.5718 36.5774 18.261C37.0242 17.5055 37.3617 16.6924 37.5806 15.8441C37.6708 15.4948 37.9859 15.2508 38.3466 15.2508H39.5145C40.0127 15.2508 40.418 14.8455 40.418 14.3473V12.6528C40.418 12.1546 40.0127 11.7493 39.5145 11.7493H38.3466C37.9858 11.7493 37.6708 11.5052 37.5806 11.156C37.3617 10.3077 37.0242 9.49456 36.5774 8.73909C36.3937 8.42827 36.4436 8.03245 36.699 7.77711L37.5263 6.94976C37.884 6.59253 37.8746 6.01984 37.5266 5.67227L36.3283 4.47388C35.9809 4.12604 35.408 4.11587 35.0508 4.47356L34.2232 5.30123C33.9678 5.55662 33.5719 5.60661 33.2611 5.42278C32.5056 4.97596 31.6924 4.63841 30.8443 4.41951C30.4949 4.32939 30.2509 4.01435 30.2509 3.6536V2.48553C30.2509 1.98735 29.8455 1.58203 29.3473 1.58203H27.6528C27.1546 1.58203 26.7493 1.98735 26.7493 2.48553V3.65349C26.7493 4.01425 26.5052 4.32928 26.1559 4.4194C25.3077 4.6383 24.4946 4.97586 23.739 5.42268C23.4281 5.60646 23.0323 5.55646 22.777 5.30112L21.9497 4.47377C21.593 4.11666 21.0202 4.12494 20.6723 4.4734L19.4738 5.67185C19.1267 6.01852 19.1151 6.59137 19.4735 6.94934L20.3011 7.777C20.5565 8.03234 20.6065 8.42817 20.4227 8.73898C19.9759 9.49445 19.6384 10.3076 19.4195 11.1559C19.3293 11.5052 19.0142 11.7492 18.6535 11.7492H17.4856C16.9874 11.7492 16.582 12.1545 16.582 12.6527V14.3473C16.582 14.8455 16.9874 15.2508 17.4856 15.2508H18.6535C19.0142 15.2508 19.3292 15.4948 19.4194 15.8441C19.6383 16.6923 19.9759 17.5055 20.4226 18.261C20.6064 18.5718 20.5564 18.9676 20.3011 19.2229L19.4737 20.0503C19.1161 20.4075 19.1254 20.9802 19.4734 21.3278L20.6718 22.5262C21.0192 22.874 21.5921 22.8842 21.9493 22.5265L22.7769 21.6988C22.9651 21.5107 23.3565 21.3511 23.739 21.5773V21.5773Z" fill="#2B3AD7" fill-opacity="0.32"/>
<path d="M28.5001 19.3747C25.2608 19.3747 22.6255 16.7394 22.6255 13.5001C22.6255 10.2608 25.2608 7.62549 28.5001 7.62549C31.7394 7.62549 34.3747 10.2608 34.3747 13.5001C34.3747 16.7394 31.7394 19.3747 28.5001 19.3747V19.3747ZM28.5001 9.20752C26.1331 9.20752 24.2075 11.1332 24.2075 13.5001C24.2075 15.867 26.1332 17.7927 28.5001 17.7927C30.867 17.7927 32.7927 15.867 32.7927 13.5001C32.7927 11.1332 30.8671 9.20752 28.5001 9.20752V9.20752Z" fill="#2B3AD7" fill-opacity="0.32"/>
</svg>
