<svg width="56" height="38" viewBox="0 0 56 38" fill="none" xmlns="http://www.w3.org/2000/svg">
<path d="M37.6149 11.9217C39.4336 10.7636 40.6385 8.75949 40.6385 6.48502C40.6385 2.90914 37.6606 0 34.0001 0C31.5499 0 29.4055 1.30369 28.2554 3.23819C27.1052 1.30369 24.9611 0 22.5109 0C18.8504 0 15.8723 2.90914 15.8723 6.48502C15.8723 8.75949 17.0771 10.7636 18.8958 11.9217C15.4393 13.3146 13 16.6414 13 20.515V23.7884C13 25.5594 14.4749 27 16.2875 27H40.2232C42.0361 27 43.5107 25.5594 43.5107 23.7886V20.515C43.5107 16.6414 41.0715 13.3146 37.6149 11.9217ZM34.0001 1.74644C36.6747 1.74644 38.8507 3.87218 38.8507 6.48502C38.8507 9.09809 36.6747 11.2238 34.0001 11.2238C31.3253 11.2238 29.1492 9.09809 29.1492 6.48502C29.1492 3.87218 31.3253 1.74644 34.0001 1.74644ZM28.2521 13.1129C27.6031 12.6312 26.8894 12.2294 26.1259 11.9217C26.9991 11.3657 27.7307 10.6146 28.2554 9.73231C28.7798 10.6142 29.511 11.3648 30.3834 11.9208C29.6271 12.2246 28.9106 12.6244 28.2521 13.1129ZM17.66 6.48502C17.66 3.87218 19.836 1.74644 22.5109 1.74644C25.1855 1.74644 27.3615 3.87218 27.3615 6.48502C27.3615 9.09809 25.1855 11.2238 22.5109 11.2238C19.836 11.2238 17.66 9.09809 17.66 6.48502ZM27.7765 25.2536H16.2875C15.4605 25.2536 14.7877 24.5964 14.7877 23.7886V20.515C14.7877 16.3547 18.2524 12.9703 22.5109 12.9703C26.7693 12.9703 30.234 16.3549 30.234 20.515V23.7886C30.234 24.5964 29.561 25.2536 28.7342 25.2536H27.7765ZM41.723 23.7886C41.723 24.5964 41.0503 25.2536 40.2232 25.2536H31.6581C31.89 24.814 32.0217 24.3162 32.0217 23.7886V20.515C32.0217 18.1368 31.1018 15.9647 29.5922 14.3197C30.8795 13.4446 32.4137 12.9703 34.0001 12.9703C38.2586 12.9703 41.723 16.3547 41.723 20.515V23.7886Z" fill="#2B3AD7" fill-opacity="0.32"/>
</svg>
