<svg width="56" height="38" viewBox="0 0 56 38" fill="none" xmlns="http://www.w3.org/2000/svg">
<path d="M40.1016 6.32834H30.082V0.527344C30.082 0.236145 29.8459 0 29.5547 0H16.8984C16.6072 0 16.3711 0.236145 16.3711 0.527344V26.4726C16.3711 26.7638 16.6072 26.9999 16.8984 26.9999H29.5547H40.1016C40.3928 26.9999 40.6289 26.7638 40.6289 26.4726V6.85568C40.6289 6.56443 40.3928 6.32834 40.1016 6.32834ZM30.082 7.38302H39.5742V20.6718H30.082V7.38302ZM21.6445 25.9453V21.7265H24.8086V25.9453H21.6445ZM25.3359 20.6718H21.1172C20.8259 20.6718 20.5898 20.908 20.5898 21.1992V25.9453H17.4258V1.05469H29.0273V25.9453H25.8633V21.1992C25.8633 20.908 25.6271 20.6718 25.3359 20.6718ZM30.082 25.9453V21.7265H39.5742V25.9453H30.082Z" fill="#2B3AD7" fill-opacity="0.32"/>
<path d="M22.6992 4.21875H23.7537C24.045 4.21875 24.2811 3.98266 24.2811 3.69141V2.63672C24.2811 2.34547 24.045 2.10938 23.7537 2.10938H22.6992C22.408 2.10938 22.1719 2.34547 22.1719 2.63672V3.69141C22.1719 3.98266 22.408 4.21875 22.6992 4.21875Z" fill="#2B3AD7" fill-opacity="0.32"/>
<path d="M22.6992 7.91016H23.7537C24.045 7.91016 24.2811 7.67407 24.2811 7.38281V6.32813C24.2811 6.03687 24.045 5.80078 23.7537 5.80078H22.6992C22.408 5.80078 22.1719 6.03687 22.1719 6.32813V7.38281C22.1719 7.67407 22.408 7.91016 22.6992 7.91016Z" fill="#2B3AD7" fill-opacity="0.32"/>
<path d="M22.6992 11.6016H23.7537C24.045 11.6016 24.2811 11.3655 24.2811 11.0742V10.0195C24.2811 9.72828 24.045 9.49219 23.7537 9.49219H22.6992C22.408 9.49219 22.1719 9.72828 22.1719 10.0195V11.0742C22.1719 11.3655 22.408 11.6016 22.6992 11.6016Z" fill="#2B3AD7" fill-opacity="0.32"/>
<path d="M22.6992 15.293H23.7537C24.045 15.293 24.2811 15.0569 24.2811 14.7656V13.7109C24.2811 13.4197 24.045 13.1836 23.7537 13.1836H22.6992C22.408 13.1836 22.1719 13.4197 22.1719 13.7109V14.7656C22.1719 15.0569 22.408 15.293 22.6992 15.293Z" fill="#2B3AD7" fill-opacity="0.32"/>
<path d="M22.6992 18.9844H23.7537C24.045 18.9844 24.2811 18.7483 24.2811 18.457V17.4023C24.2811 17.1111 24.045 16.875 23.7537 16.875H22.6992C22.408 16.875 22.1719 17.1111 22.1719 17.4023V18.457C22.1719 18.7483 22.408 18.9844 22.6992 18.9844Z" fill="#2B3AD7" fill-opacity="0.32"/>
<path d="M19.0078 4.21875H20.0623C20.3536 4.21875 20.5897 3.98266 20.5897 3.69141V2.63672C20.5897 2.34547 20.3536 2.10938 20.0623 2.10938H19.0078C18.7166 2.10938 18.4805 2.34547 18.4805 2.63672V3.69141C18.4805 3.98266 18.7166 4.21875 19.0078 4.21875Z" fill="#2B3AD7" fill-opacity="0.32"/>
<path d="M19.0078 7.91016H20.0623C20.3536 7.91016 20.5897 7.67407 20.5897 7.38281V6.32813C20.5897 6.03687 20.3536 5.80078 20.0623 5.80078H19.0078C18.7166 5.80078 18.4805 6.03687 18.4805 6.32813V7.38281C18.4805 7.67407 18.7166 7.91016 19.0078 7.91016Z" fill="#2B3AD7" fill-opacity="0.32"/>
<path d="M19.0078 11.6016H20.0623C20.3536 11.6016 20.5897 11.3655 20.5897 11.0742V10.0195C20.5897 9.72828 20.3536 9.49219 20.0623 9.49219H19.0078C18.7166 9.49219 18.4805 9.72828 18.4805 10.0195V11.0742C18.4805 11.3655 18.7166 11.6016 19.0078 11.6016Z" fill="#2B3AD7" fill-opacity="0.32"/>
<path d="M19.0078 15.293H20.0623C20.3536 15.293 20.5897 15.0569 20.5897 14.7656V13.7109C20.5897 13.4197 20.3536 13.1836 20.0623 13.1836H19.0078C18.7166 13.1836 18.4805 13.4197 18.4805 13.7109V14.7656C18.4805 15.0569 18.7166 15.293 19.0078 15.293Z" fill="#2B3AD7" fill-opacity="0.32"/>
<path d="M19.0078 18.9844H20.0623C20.3536 18.9844 20.5897 18.7483 20.5897 18.457V17.4023C20.5897 17.1111 20.3536 16.875 20.0623 16.875H19.0078C18.7166 16.875 18.4805 17.1111 18.4805 17.4023V18.457C18.4805 18.7483 18.7166 18.9844 19.0078 18.9844Z" fill="#2B3AD7" fill-opacity="0.32"/>
<path d="M27.4452 2.10938H26.3906C26.0994 2.10938 25.8633 2.34547 25.8633 2.63672V3.69141C25.8633 3.98266 26.0994 4.21875 26.3906 4.21875H27.4452C27.7364 4.21875 27.9725 3.98266 27.9725 3.69141V2.63672C27.9725 2.34547 27.7364 2.10938 27.4452 2.10938Z" fill="#2B3AD7" fill-opacity="0.32"/>
<path d="M27.4452 5.80078H26.3906C26.0994 5.80078 25.8633 6.03687 25.8633 6.32812V7.38281C25.8633 7.67406 26.0994 7.91016 26.3906 7.91016H27.4452C27.7364 7.91016 27.9725 7.67406 27.9725 7.38281V6.32812C27.9725 6.03693 27.7364 5.80078 27.4452 5.80078Z" fill="#2B3AD7" fill-opacity="0.32"/>
<path d="M27.4452 9.49219H26.3906C26.0994 9.49219 25.8633 9.72828 25.8633 10.0195V11.0742C25.8633 11.3655 26.0994 11.6016 26.3906 11.6016H27.4452C27.7364 11.6016 27.9725 11.3655 27.9725 11.0742V10.0195C27.9725 9.72833 27.7364 9.49219 27.4452 9.49219Z" fill="#2B3AD7" fill-opacity="0.32"/>
<path d="M27.4452 13.1836H26.3906C26.0994 13.1836 25.8633 13.4197 25.8633 13.7109V14.7656C25.8633 15.0569 26.0994 15.293 26.3906 15.293H27.4452C27.7364 15.293 27.9725 15.0569 27.9725 14.7656V13.7109C27.9725 13.4197 27.7364 13.1836 27.4452 13.1836Z" fill="#2B3AD7" fill-opacity="0.32"/>
<path d="M27.4452 16.875H26.3906C26.0994 16.875 25.8633 17.1111 25.8633 17.4023V18.457C25.8633 18.7483 26.0994 18.9844 26.3906 18.9844H27.4452C27.7364 18.9844 27.9725 18.7483 27.9725 18.457V17.4023C27.9725 17.1111 27.7364 16.875 27.4452 16.875Z" fill="#2B3AD7" fill-opacity="0.32"/>
<path d="M37.201 9.49219H36.1465C35.8552 9.49219 35.6191 9.72828 35.6191 10.0195V11.0742C35.6191 11.3655 35.8552 11.6016 36.1465 11.6016H37.201C37.4923 11.6016 37.7284 11.3655 37.7284 11.0742V10.0195C37.7284 9.72833 37.4922 9.49219 37.201 9.49219Z" fill="#2B3AD7" fill-opacity="0.32"/>
<path d="M37.201 13.1836H36.1465C35.8552 13.1836 35.6191 13.4197 35.6191 13.7109V14.7656C35.6191 15.0569 35.8552 15.293 36.1465 15.293H37.201C37.4923 15.293 37.7284 15.0569 37.7284 14.7656V13.7109C37.7284 13.4197 37.4922 13.1836 37.201 13.1836Z" fill="#2B3AD7" fill-opacity="0.32"/>
<path d="M37.201 16.875H36.1465C35.8552 16.875 35.6191 17.1111 35.6191 17.4023V18.457C35.6191 18.7483 35.8552 18.9844 36.1465 18.9844H37.201C37.4923 18.9844 37.7284 18.7483 37.7284 18.457V17.4023C37.7284 17.1111 37.4922 16.875 37.201 16.875Z" fill="#2B3AD7" fill-opacity="0.32"/>
<path d="M33.5096 9.49219H32.4551C32.1638 9.49219 31.9277 9.72828 31.9277 10.0195V11.0742C31.9277 11.3655 32.1638 11.6016 32.4551 11.6016H33.5096C33.8009 11.6016 34.037 11.3655 34.037 11.0742V10.0195C34.037 9.72833 33.8008 9.49219 33.5096 9.49219Z" fill="#2B3AD7" fill-opacity="0.32"/>
<path d="M33.5096 13.1836H32.4551C32.1638 13.1836 31.9277 13.4197 31.9277 13.7109V14.7656C31.9277 15.0569 32.1638 15.293 32.4551 15.293H33.5096C33.8009 15.293 34.037 15.0569 34.037 14.7656V13.7109C34.037 13.4197 33.8008 13.1836 33.5096 13.1836Z" fill="#2B3AD7" fill-opacity="0.32"/>
<path d="M33.5096 16.875H32.4551C32.1638 16.875 31.9277 17.1111 31.9277 17.4023V18.457C31.9277 18.7483 32.1638 18.9844 32.4551 18.9844H33.5096C33.8009 18.9844 34.037 18.7483 34.037 18.457V17.4023C34.037 17.1111 33.8008 16.875 33.5096 16.875Z" fill="#2B3AD7" fill-opacity="0.32"/>
</svg>
