<svg width="167" height="444" viewBox="0 0 167 444" fill="none" xmlns="http://www.w3.org/2000/svg">
<path fill-rule="evenodd" clip-rule="evenodd" d="M0.296875 374.6V408.743L83.4984 443.063L83.6266 409.113L0.296875 374.6Z" fill="#B0B6F1"/>
<path fill-rule="evenodd" clip-rule="evenodd" d="M83.8791 408.745L83.688 442.997L166.292 409.056L166.512 374.843" fill="#2B3AD7"/>
<path fill-rule="evenodd" clip-rule="evenodd" d="M0.59375 375.331L83.1779 341.254L166.144 375.749L83.9425 409.407L0.59375 375.331Z" fill="#9EA5ED"/>
<path fill-rule="evenodd" clip-rule="evenodd" d="M43.9219 342.714L43.9765 375.628L84.9885 392.222V359.937L43.9219 342.714Z" fill="#2D4A85"/>
<path fill-rule="evenodd" clip-rule="evenodd" d="M84.9994 360.085L125.914 342.471L125.791 375.473L84.876 391.771L84.9994 360.085Z" fill="black"/>
<path fill-rule="evenodd" clip-rule="evenodd" d="M43.9219 342.806L85.2805 324.946L125.71 342.806L85.0811 360.339" fill="#2B3AD7"/>
<path fill-rule="evenodd" clip-rule="evenodd" d="M0.59375 307.176V341.321L83.7953 375.639L83.9234 341.691L0.59375 307.176Z" fill="#B0B6F1"/>
<path fill-rule="evenodd" clip-rule="evenodd" d="M84.1776 341.563L83.9854 375.814L166.591 341.876L166.811 307.663" fill="#2B3AD7"/>
<path fill-rule="evenodd" clip-rule="evenodd" d="M0.890625 307.908L83.4761 273.831L166.443 308.326L84.2405 341.984L0.890625 307.908Z" fill="#9EA5ED"/>
<path fill-rule="evenodd" clip-rule="evenodd" d="M44.2188 275.291L44.2734 308.207L85.2841 324.799V292.514L44.2188 275.291Z" fill="#2D4A85"/>
<path fill-rule="evenodd" clip-rule="evenodd" d="M85.2953 292.903L126.209 275.291L126.085 308.29L85.1719 324.589L85.2953 292.903Z" fill="black"/>
<path fill-rule="evenodd" clip-rule="evenodd" d="M44.2188 275.382L85.5786 257.522L126.008 275.382L85.3791 292.915" fill="#2B3AD7"/>
<path fill-rule="evenodd" clip-rule="evenodd" d="M0.59375 238.78V272.925L83.7953 307.243L83.9234 273.293L0.59375 238.78Z" fill="#B0B6F1"/>
<path fill-rule="evenodd" clip-rule="evenodd" d="M84.1776 273.169L83.9854 307.42L166.591 273.482L166.811 239.267" fill="#2B3AD7"/>
<path fill-rule="evenodd" clip-rule="evenodd" d="M0.890625 239.51L83.4761 205.434L166.443 239.929L84.2405 273.587L0.890625 239.51Z" fill="#9EA5ED"/>
<path fill-rule="evenodd" clip-rule="evenodd" d="M44.2188 206.895L44.2734 239.811L85.2841 256.403V224.118L44.2188 206.895Z" fill="#2D4A85"/>
<path fill-rule="evenodd" clip-rule="evenodd" d="M85.2953 224.507L126.209 206.895L126.085 239.894L85.1719 256.193L85.2953 224.507Z" fill="black"/>
<path fill-rule="evenodd" clip-rule="evenodd" d="M44.2188 206.986L85.5786 189.126L126.008 206.986L85.3791 224.519" fill="#2B3AD7"/>
<path fill-rule="evenodd" clip-rule="evenodd" d="M0.59375 170.383V204.528L83.7953 238.846L83.9234 204.896L0.59375 170.383Z" fill="#B0B6F1"/>
<path fill-rule="evenodd" clip-rule="evenodd" d="M84.1776 204.528L83.9854 238.78L166.591 204.84L166.811 170.627" fill="#2B3AD7"/>
<path fill-rule="evenodd" clip-rule="evenodd" d="M0.890625 171.113L83.4761 137.037L166.443 171.532L84.2405 205.19L0.890625 171.113Z" fill="#9EA5ED"/>
<path fill-rule="evenodd" clip-rule="evenodd" d="M44.2188 138.498L44.2734 171.412L85.2841 188.006V155.721L44.2188 138.498Z" fill="#2D4A85"/>
<path fill-rule="evenodd" clip-rule="evenodd" d="M85.2953 156.11L126.209 138.498L126.085 171.497L85.1719 187.796L85.2953 156.11Z" fill="black"/>
<path fill-rule="evenodd" clip-rule="evenodd" d="M44.2188 138.589L85.5786 120.729L126.008 138.589L85.3791 156.121" fill="#2B3AD7"/>
<path fill-rule="evenodd" clip-rule="evenodd" d="M0.296875 101.987V136.13L83.4984 170.45L83.6266 136.5L0.296875 101.987Z" fill="#B0B6F1"/>
<path fill-rule="evenodd" clip-rule="evenodd" d="M83.8791 136.131L83.688 170.383L166.292 136.443L166.512 102.23" fill="#2B3AD7"/>
<path fill-rule="evenodd" clip-rule="evenodd" d="M0.59375 102.717L83.1779 68.6406L166.144 103.136L83.9425 136.794L0.59375 102.717Z" fill="#9EA5ED"/>
<path fill-rule="evenodd" clip-rule="evenodd" d="M43.9219 70.1001L43.9765 103.014L84.9885 119.609V87.3234L43.9219 70.1001Z" fill="#2D4A85"/>
<path fill-rule="evenodd" clip-rule="evenodd" d="M84.9994 87.4717L125.914 69.8569L125.791 102.859L84.876 119.157L84.9994 87.4717Z" fill="black"/>
<path fill-rule="evenodd" clip-rule="evenodd" d="M43.9219 70.1921L85.2805 52.332L125.71 70.1921L85.0811 87.725" fill="#2B3AD7"/>
<path fill-rule="evenodd" clip-rule="evenodd" d="M0 33.3467V67.4895L83.2014 101.81L83.3297 67.8595L0 33.3467Z" fill="#B0B6F1"/>
<path fill-rule="evenodd" clip-rule="evenodd" d="M83.5839 67.7349L83.3916 101.987L165.997 68.0465L166.217 33.8335" fill="#2B3AD7"/>
<path fill-rule="evenodd" clip-rule="evenodd" d="M0.296875 34.0767L82.8824 0L165.849 34.4953L83.6469 68.1533L0.296875 34.0767Z" fill="#9EA5ED"/>
</svg>
